<svg width="24" height="24" viewBox="0 0 24 24" fill="none" xmlns="http://www.w3.org/2000/svg">
<path d="M21.6093 17.7938C22.1854 16.7185 22.4905 15.519 22.4982 14.2992C22.5059 13.0794 22.216 11.8761 21.6535 10.7937C21.0911 9.71128 20.2731 8.78238 19.2705 8.08754C18.2679 7.39271 17.111 6.95291 15.9 6.80627C15.5012 5.8763 14.9185 5.03663 14.1867 4.3378C13.455 3.63898 12.5894 3.09544 11.6421 2.73992C10.6947 2.3844 9.68526 2.22424 8.67441 2.26909C7.66357 2.31394 6.67225 2.56286 5.76013 3.00088C4.84802 3.4389 4.03396 4.05696 3.36697 4.81784C2.69999 5.57872 2.19386 6.4667 1.87905 7.42833C1.56425 8.38995 1.44729 9.40533 1.5352 10.4133C1.62311 11.4214 1.91408 12.4012 2.3906 13.2938L1.80935 15.3188C1.74198 15.544 1.73681 15.7833 1.79438 16.0113C1.85196 16.2392 1.97013 16.4474 2.13638 16.6136C2.30263 16.7799 2.51077 16.898 2.73872 16.9556C2.96668 17.0132 3.20596 17.008 3.43122 16.9406L5.45622 16.3594C6.27864 16.7978 7.1749 17.0806 8.09997 17.1938C8.50858 18.1514 9.11211 19.0135 9.87212 19.7251C10.6321 20.4367 11.532 20.9823 12.5144 21.3271C13.4968 21.6719 14.5402 21.8084 15.5783 21.7279C16.6163 21.6473 17.6262 21.3516 18.5437 20.8594L20.5687 21.4406C20.794 21.508 21.0333 21.5132 21.2612 21.4556C21.4892 21.398 21.6973 21.2799 21.8636 21.1136C22.0298 20.9474 22.148 20.7392 22.2056 20.5113C22.2631 20.2833 22.258 20.044 22.1906 19.8188L21.6093 17.7938ZM20.1656 17.3156C20.111 17.401 20.0753 17.4969 20.0607 17.5972C20.0462 17.6974 20.0532 17.7996 20.0812 17.8969L20.6625 19.9125L18.6468 19.3313C18.5495 19.3032 18.4473 19.2962 18.3471 19.3108C18.2469 19.3253 18.1509 19.3611 18.0656 19.4156C17.3783 19.8212 16.6173 20.086 15.8267 20.1946C15.0362 20.3033 14.2319 20.2537 13.4607 20.0487C12.6895 19.8437 11.9668 19.4874 11.3346 19.0005C10.7024 18.5135 10.1733 17.9058 9.7781 17.2125C11.6214 17.0161 13.3271 16.1456 14.5678 14.7682C15.8084 13.3909 16.4965 11.6037 16.5 9.75002C16.4979 9.30047 16.4571 8.85194 16.3781 8.40939C17.6938 8.7199 18.8661 9.46563 19.705 10.5257C20.5439 11.5858 21.0002 12.8982 21 14.25C20.9987 15.3278 20.7107 16.3859 20.1656 17.3156Z" fill="#7F2D0F"/>
</svg>
