<svg width="32" height="32" viewBox="0 0 32 32" fill="none" xmlns="http://www.w3.org/2000/svg">
<path d="M30.7125 9.71262L26.9375 13.4751C26.1875 22.2126 18.8125 29.0001 9.99997 29.0001C8.18747 29.0001 6.68747 28.7126 5.54997 28.1501C4.63747 27.6876 4.26247 27.2001 4.16247 27.0501C4.07973 26.9244 4.02641 26.7817 4.0065 26.6326C3.98658 26.4835 4.00057 26.3318 4.04743 26.1888C4.09428 26.0458 4.1728 25.9152 4.27713 25.8068C4.38145 25.6984 4.5089 25.6149 4.64997 25.5626C4.67497 25.5501 7.62497 24.4251 9.53747 22.2626C8.35139 21.4181 7.30891 20.3883 6.44997 19.2126C4.73747 16.8876 2.92497 12.8501 4.01247 6.82512C4.04665 6.646 4.12858 6.47944 4.24959 6.34303C4.3706 6.20662 4.5262 6.10542 4.69997 6.05012C4.87428 5.99304 5.06094 5.985 5.23952 6.02689C5.4181 6.06878 5.58171 6.15898 5.71247 6.28762C5.74997 6.33762 9.91247 10.4376 15 11.7626V11.0001C15.0049 10.2073 15.1659 9.42313 15.4739 8.6925C15.7818 7.96188 16.2307 7.29906 16.7948 6.74191C17.3589 6.18475 18.0272 5.74417 18.7616 5.44531C19.496 5.14645 20.2821 4.99518 21.075 5.00012C22.1156 5.01496 23.1346 5.29909 24.0328 5.82484C24.9309 6.35059 25.6776 7.10002 26.2 8.00012H30C30.1974 7.9995 30.3906 8.05733 30.5552 8.16633C30.7198 8.27533 30.8485 8.43062 30.925 8.61262C30.997 8.79733 31.0153 8.99866 30.9777 9.19333C30.9401 9.38799 30.8481 9.56803 30.7125 9.71262Z" fill="#EBEBEB"/>
</svg>
