<svg width="32" height="32" viewBox="0 0 32 32" fill="none" xmlns="http://www.w3.org/2000/svg">

<path d="M9.0625 25.3438C9.54167 25.3438 10.0156 25.3021 10.4844 25.2188C10.9531 25.125 11.3802 25.0156 11.7656 24.8906V27.6719C11.3594 27.849 10.8333 28 10.1875 28.125C9.54167 28.25 8.86979 28.3125 8.17187 28.3125C7.19271 28.3125 6.3125 28.151 5.53125 27.8281C4.75 27.4948 4.13021 26.9271 3.67187 26.125C3.21354 25.3229 2.98437 24.2135 2.98437 22.7969V13.5H0.625V11.8594L3.15625 10.5625L4.35937 6.85938H6.67187V10.7031H11.625V13.5H6.67187V22.75C6.67187 23.625 6.89062 24.276 7.32812 24.7031C7.76562 25.1302 8.34375 25.3438 9.0625 25.3438Z" fill="white"/>


</svg>
